<svg width="28" height="28" viewBox="0 0 28 28" fill="none" xmlns="http://www.w3.org/2000/svg">
<circle cx="14" cy="14" r="14" fill="black"/>
<path d="M15.2998 17.0889H13.0586C13.0645 16.5615 13.1055 16.1074 13.1816 15.7266C13.2637 15.3398 13.4014 14.9912 13.5947 14.6807C13.7939 14.3701 14.0576 14.0625 14.3857 13.7578C14.6611 13.5117 14.9014 13.2773 15.1064 13.0547C15.3115 12.832 15.4727 12.6035 15.5898 12.3691C15.707 12.1289 15.7656 11.8623 15.7656 11.5693C15.7656 11.2295 15.7129 10.9482 15.6074 10.7256C15.5078 10.4971 15.3555 10.3242 15.1504 10.207C14.9512 10.0898 14.6992 10.0312 14.3945 10.0312C14.1426 10.0312 13.9082 10.0869 13.6914 10.1982C13.4746 10.3037 13.2959 10.4678 13.1553 10.6904C13.0205 10.9131 12.9502 11.2061 12.9443 11.5693H10.3955C10.4131 10.7666 10.5977 10.1045 10.9492 9.58301C11.3066 9.05566 11.7842 8.66602 12.3818 8.41406C12.9795 8.15625 13.6504 8.02734 14.3945 8.02734C15.2148 8.02734 15.918 8.16211 16.5039 8.43164C17.0898 8.69531 17.5381 9.08496 17.8486 9.60059C18.1592 10.1104 18.3145 10.7314 18.3145 11.4639C18.3145 11.9736 18.2148 12.4277 18.0156 12.8262C17.8164 13.2188 17.5557 13.585 17.2334 13.9248C16.9111 14.2646 16.5566 14.6162 16.1699 14.9795C15.8359 15.2783 15.6074 15.5918 15.4844 15.9199C15.3672 16.248 15.3057 16.6377 15.2998 17.0889ZM12.7949 19.8047C12.7949 19.4297 12.9238 19.1191 13.1816 18.873C13.4395 18.6211 13.7852 18.4951 14.2188 18.4951C14.6465 18.4951 14.9893 18.6211 15.2471 18.873C15.5107 19.1191 15.6426 19.4297 15.6426 19.8047C15.6426 20.168 15.5107 20.4756 15.2471 20.7275C14.9893 20.9795 14.6465 21.1055 14.2188 21.1055C13.7852 21.1055 13.4395 20.9795 13.1816 20.7275C12.9238 20.4756 12.7949 20.168 12.7949 19.8047Z" fill="white"/>
</svg>
