<svg width="74" height="25" viewBox="0 0 74 25" fill="none" xmlns="http://www.w3.org/2000/svg">
<rect width="74" height="24.3765" fill="black"/>
<path d="M16.0467 5.62132V18H13.4962V7.61926H8.52258V18H5.97203V5.62132H16.0467ZM23.6171 13.5875H20.4629V11.5981H23.6171C24.1045 11.5981 24.5013 11.5188 24.8073 11.3601C25.1134 11.1957 25.3373 10.969 25.479 10.6799C25.6207 10.3909 25.6915 10.065 25.6915 9.70221C25.6915 9.33379 25.6207 8.99089 25.479 8.67348C25.3373 8.35608 25.1134 8.10103 24.8073 7.90832C24.5013 7.71561 24.1045 7.61926 23.6171 7.61926H21.3471V18H18.7965V5.62132H23.6171C24.5863 5.62132 25.4166 5.79703 26.1081 6.14844C26.8053 6.49418 27.3381 6.97312 27.7065 7.58525C28.0749 8.19738 28.2591 8.89737 28.2591 9.6852C28.2591 10.4844 28.0749 11.1759 27.7065 11.7597C27.3381 12.3434 26.8053 12.794 26.1081 13.1114C25.4166 13.4288 24.5863 13.5875 23.6171 13.5875ZM33.1004 5.62132V18H30.5498V5.62132H33.1004ZM40.395 5.62132L35.6509 12.8904H32.5308L32.2077 10.6204H34.2906L37.3003 5.62132H40.395ZM37.7679 18L34.2991 12.4653L36.0675 10.6459L40.7945 18H37.7679ZM42.3966 5.62132H44.9557V9.42165C44.9557 9.96576 45.0379 10.3909 45.2022 10.6969C45.3723 11.003 45.6273 11.2184 45.9674 11.3431C46.3131 11.4621 46.7411 11.5216 47.2512 11.5216C47.4439 11.5216 47.6706 11.5131 47.9313 11.4961C48.1977 11.4791 48.4698 11.4536 48.7475 11.4196C49.0252 11.3799 49.2916 11.3374 49.5467 11.292C49.8017 11.241 50.0143 11.1844 50.1843 11.122V13.1114C50.0143 13.1681 49.8017 13.222 49.5467 13.273C49.2916 13.324 49.0252 13.3693 48.7475 13.409C48.4698 13.443 48.1977 13.4685 47.9313 13.4855C47.6706 13.5025 47.4439 13.511 47.2512 13.511C46.265 13.511 45.4091 13.3693 44.6836 13.0859C43.9581 12.8025 43.3942 12.3604 42.9918 11.7597C42.595 11.1532 42.3966 10.3739 42.3966 9.42165V5.62132ZM49.6487 5.62132H52.1992V18H49.6487V5.62132ZM56.0968 5.62132H58.2563L61.436 14.7098L64.6157 5.62132H66.7751L62.3032 18H60.5688L56.0968 5.62132ZM54.9321 5.62132H57.083L57.4741 14.4802V18H54.9321V5.62132ZM65.7889 5.62132H67.9484V18H65.3978V14.4802L65.7889 5.62132Z" fill="white"/>
</svg>
